<svg width="128" height="128" viewBox="0 0 128 128" fill="none" xmlns="http://www.w3.org/2000/svg">
<g clip-path="url(#clip0_593_50)">
<g opacity="0.75" filter="url(#filter0_f_593_50)">
<path d="M53.5849 24.0132C60.0298 20.2922 67.9702 20.2922 74.4151 24.0132L93.4221 34.9868C99.867 38.7078 103.837 45.5844 103.837 53.0263V74.9737C103.837 82.4156 99.867 89.2922 93.4221 93.0132L74.4151 103.987C67.9702 107.708 60.0298 107.708 53.5849 103.987L34.5779 93.0132C28.133 89.2922 24.1628 82.4156 24.1628 74.9737V53.0263C24.1628 45.5844 28.133 38.7078 34.5779 34.9868L53.5849 24.0132Z" fill="#865DFF"/>
</g>
<path d="M53.5849 24.0132C60.0298 20.2922 67.9702 20.2922 74.4151 24.0132L93.4221 34.9868C99.867 38.7078 103.837 45.5844 103.837 53.0263V74.9737C103.837 82.4156 99.867 89.2922 93.4221 93.0132L74.4151 103.987C67.9702 107.708 60.0298 107.708 53.5849 103.987L34.5779 93.0132C28.133 89.2922 24.1628 82.4156 24.1628 74.9737V53.0263C24.1628 45.5844 28.133 38.7078 34.5779 34.9868L53.5849 24.0132Z" fill="white"/>
</g>
<defs>
<filter id="filter0_f_593_50" x="-39.8372" y="-42.7776" width="207.674" height="213.555" filterUnits="userSpaceOnUse" color-interpolation-filters="sRGB">
<feFlood flood-opacity="0" result="BackgroundImageFix"/>
<feBlend mode="normal" in="SourceGraphic" in2="BackgroundImageFix" result="shape"/>
<feGaussianBlur stdDeviation="32" result="effect1_foregroundBlur_593_50"/>
</filter>
<clipPath id="clip0_593_50">
<rect width="128" height="128" fill="white"/>
</clipPath>
</defs>
</svg>
