<svg width="128" height="128" viewBox="0 0 128 128" fill="none" xmlns="http://www.w3.org/2000/svg">
<g clip-path="url(#clip0_636_53)">
<rect width="128" height="128" fill="white"/>
<path d="M63.6507 36.4242C68.5966 36.4242 72.5533 38.0493 75.5209 41.2995C78.4884 44.479 79.9722 48.7537 79.9722 54.1235V89.8402C79.9722 90.5467 79.6189 90.9 78.9124 90.9H73.5072C72.8006 90.9 72.4473 90.5467 72.4473 89.8402V86.6606C72.4473 86.5193 72.3767 86.4487 72.2354 86.4487C72.1647 86.378 72.0587 86.4133 71.9174 86.5546C69.3031 90.0168 65.3817 91.7479 60.1532 91.7479C56.2671 91.7479 52.8756 90.6527 49.9787 88.4624C47.1525 86.2014 45.7394 82.2446 45.7394 76.5922C45.7394 70.5864 47.4704 66.2057 50.9326 63.4501C54.3947 60.6239 58.952 59.2108 64.6045 59.2108H72.0234C72.306 59.2108 72.4473 59.0695 72.4473 58.7868V54.6535C72.4473 51.1207 71.6348 48.2944 70.0097 46.1747C68.3846 44.0551 66.1943 42.9952 63.4387 42.9952C61.319 42.9952 59.482 43.7018 57.9275 45.1149C56.4437 46.528 55.5605 48.3297 55.2779 50.5201C55.2779 51.2266 54.9246 51.5799 54.2181 51.5799L48.283 51.4739C47.9297 51.4739 47.6471 51.368 47.4351 51.156C47.2938 50.944 47.2585 50.6967 47.3291 50.4141C47.6824 46.2454 49.3781 42.8892 52.4164 40.3456C55.4546 37.7313 59.1993 36.4242 63.6507 36.4242ZM61.7429 85.1769C64.6398 85.1769 67.1481 84.2583 69.2678 82.4213C71.3875 80.5136 72.4473 77.8993 72.4473 74.5785V65.6758C72.4473 65.3932 72.306 65.2519 72.0234 65.2519H64.4985C61.107 65.2519 58.4221 66.1704 56.4437 68.0074C54.4654 69.7738 53.4762 72.4234 53.4762 75.9562C53.4762 79.0651 54.2181 81.3968 55.7019 82.9512C57.2563 84.435 59.27 85.1769 61.7429 85.1769Z" fill="black"/>
</g>
<defs>
<clipPath id="clip0_636_53">
<rect width="128" height="128" fill="white"/>
</clipPath>
</defs>
</svg>
