<svg width="128" height="128" viewBox="0 0 128 128" fill="none" xmlns="http://www.w3.org/2000/svg">
<rect width="128" height="128" fill="#6CCF61"/>
<path fill-rule="evenodd" clip-rule="evenodd" d="M32 64C32 46.3269 46.3269 32 64 32C81.6731 32 96 46.3269 96 64C96 81.6731 81.6731 96 64 96C46.3269 96 32 81.6731 32 64ZM75.8492 58.0461C76.6394 56.9398 76.3831 55.4025 75.2769 54.6123C74.1706 53.8221 72.6333 54.0784 71.8431 55.1846L61.2244 70.0509L55.8944 64.7209C54.9331 63.7596 53.3746 63.7596 52.4133 64.7209C51.452 65.6822 51.452 67.2408 52.4133 68.2021L59.7979 75.5867C60.3095 76.0983 61.0204 76.359 61.7415 76.2993C62.4626 76.2396 63.1209 75.8657 63.5415 75.2769L75.8492 58.0461Z" fill="black"/>
</svg>
