<svg width="128" height="128" viewBox="0 0 128 128" fill="none" xmlns="http://www.w3.org/2000/svg">
<rect width="128" height="128" fill="#FCFFE7"/>
<path d="M54.8758 84.2808L49.3462 80.4408L53.4934 74.4504C54.159 73.4776 54.9526 72.5304 55.8742 71.6088C56.7958 70.636 57.7174 69.74 58.639 68.9208C59.6118 68.0504 60.4566 67.308 61.1734 66.6936L60.943 66.156C59.9702 66.0536 58.8694 65.9512 57.6406 65.8488C56.4118 65.6952 55.1574 65.4904 53.8774 65.2344C52.6486 64.9272 51.4966 64.5944 50.4214 64.236L43.663 61.7784L45.967 55.404L52.7254 57.8616C53.8006 58.22 54.9014 58.732 56.0278 59.3976C57.2054 60.012 58.3318 60.6776 59.407 61.3944C60.4822 62.06 61.4038 62.7 62.1718 63.3144L62.5558 63.0072C62.2998 62.0344 62.0182 60.9336 61.711 59.7048C61.4038 58.4248 61.1478 57.1192 60.943 55.788C60.7382 54.4056 60.6358 53.1256 60.6358 51.948V44.652H67.3942V51.948C67.3942 53.1256 67.2918 54.4056 67.087 55.788C66.8822 57.1192 66.6262 58.4248 66.319 59.7048C66.0118 60.9336 65.7046 62.0344 65.3974 63.0072L65.7814 63.3144C66.6006 62.7 67.5222 62.06 68.5462 61.3944C69.6214 60.6776 70.7222 60.012 71.8486 59.3976C73.0262 58.732 74.1526 58.22 75.2278 57.8616L82.063 55.404L84.367 61.7784L77.5318 64.236C76.5078 64.5944 75.3558 64.9272 74.0758 65.2344C72.847 65.4904 71.6182 65.6952 70.3894 65.8488C69.1606 65.9512 68.0598 66.0536 67.087 66.156L66.7798 66.7704C67.5478 67.3848 68.3926 68.1272 69.3142 68.9976C70.287 69.8168 71.2086 70.7128 72.079 71.6856C73.0006 72.6072 73.7686 73.5288 74.383 74.4504L78.607 80.4408L73.0774 84.2808L68.8534 78.2904C68.239 77.3688 67.6246 76.3192 67.0102 75.1416C66.447 73.964 65.9094 72.7864 65.3974 71.6088C64.9366 70.4312 64.5526 69.3816 64.2454 68.46H63.7078C63.4006 69.3816 62.991 70.4312 62.479 71.6088C62.0182 72.7864 61.4806 73.964 60.8662 75.1416C60.303 76.3192 59.6886 77.3688 59.023 78.2904L54.8758 84.2808Z" fill="black"/>
</svg>
