<svg width="128" height="128" viewBox="0 0 128 128" fill="none" xmlns="http://www.w3.org/2000/svg">
<rect width="128" height="128" fill="white"/>
<path d="M89.5062 38.5019C86.2246 35.2217 81.7745 33.379 77.1346 33.379C72.4946 33.379 68.0446 35.2217 64.7629 38.5019L45.5949 57.4375C45.1874 57.8426 44.8642 58.3246 44.6441 58.8554C44.424 59.3862 44.3113 59.9554 44.3125 60.5301V80.5949L36.2023 88.7023C35.9991 88.9056 35.8379 89.1469 35.7279 89.4124C35.6179 89.6779 35.5613 89.9626 35.5613 90.25C35.5613 90.5374 35.6179 90.822 35.7279 91.0876C35.8379 91.3531 35.9991 91.5944 36.2023 91.7976C36.6128 92.2081 37.1695 92.4387 37.75 92.4387C38.0374 92.4387 38.322 92.3821 38.5876 92.2721C38.8531 92.1621 39.0944 92.0009 39.2977 91.7976L47.4078 83.6875H67.4727C68.0466 83.6884 68.6151 83.5758 69.1454 83.3562C69.6756 83.1366 70.1573 82.8143 70.5625 82.4078L89.4926 63.2672C91.121 61.6427 92.4132 59.7132 93.2953 57.589C94.1773 55.4648 94.632 53.1875 94.6333 50.8874C94.6346 48.5873 94.1824 46.3095 93.3027 44.1843C92.4229 42.0591 91.1328 40.1282 89.5062 38.5019ZM67.8473 41.5945C70.2637 39.177 73.528 37.7975 76.9458 37.7496C80.3637 37.7016 83.6654 38.9889 86.1487 41.3376C88.6321 43.6863 90.1013 46.9112 90.2437 50.3264C90.3861 53.7416 89.1905 57.0776 86.9113 59.625H71.473L80.8656 50.2351C81.2761 49.8247 81.5067 49.268 81.5067 48.6875C81.5067 48.107 81.2761 47.5503 80.8656 47.1398C80.4552 46.7294 79.8984 46.4988 79.318 46.4988C78.7375 46.4988 78.1808 46.7294 77.7703 47.1398L61.8125 63.0949V47.5582L67.8473 41.5945ZM48.6875 60.541L57.4375 51.8812V67.4672L48.6875 76.2172V60.541ZM67.4727 79.3125H51.7828L67.0953 64H82.6102L67.4727 79.3125Z" fill="black"/>
</svg>
