<svg width="111" height="111" viewBox="0 0 111 111" fill="none" xmlns="http://www.w3.org/2000/svg">
<rect width="110.592" height="110.592" fill="#E384FF"/>
<path fill-rule="evenodd" clip-rule="evenodd" d="M37.8926 36.8972C35.1441 36.8972 32.9159 39.1253 32.9159 41.8739V67.7524C32.9159 70.5009 35.1441 72.729 37.8926 72.729H71.7337C74.4823 72.729 76.7104 70.5009 76.7104 67.7524V49.8365C76.7104 47.088 74.4823 44.8598 71.7337 44.8598H58.2691C55.6301 44.8598 53.2175 43.3688 52.0373 41.0084L51.3572 39.6482C50.5142 37.9622 48.791 36.8972 46.906 36.8972H37.8926ZM26.944 41.8739C26.944 35.8271 31.8458 30.9253 37.8926 30.9253H46.906C51.053 30.9253 54.8441 33.2683 56.6987 36.9775L57.3788 38.3377C57.5474 38.6749 57.8921 38.8879 58.2691 38.8879H71.7337C77.7805 38.8879 82.6824 43.7897 82.6824 49.8365V67.7524C82.6824 73.7991 77.7805 78.701 71.7337 78.701H37.8926C31.8458 78.701 26.944 73.7991 26.944 67.7524V41.8739Z" fill="#1E1E1E"/>
<rect x="29.2579" y="41.2579" width="49.2" height="33.6" fill="#1E1E1E"/>
<rect x="31.6578" y="36.4579" width="21.6" height="8.4" fill="#1E1E1E"/>
</svg>
