<svg width="128" height="128" viewBox="0 0 128 128" fill="none" xmlns="http://www.w3.org/2000/svg">
<rect width="128" height="128" rx="12" fill="#00FFC2"/>
<path d="M19.52 54.804V43.988H37.148V82H25.032V54.804H19.52ZM41.4335 62.448C41.4335 56.4507 42.6989 51.736 45.2295 48.304C47.7949 44.872 51.7295 43.156 57.0335 43.156C62.3029 43.156 66.2202 44.8893 68.7855 48.356C71.3509 51.788 72.6335 56.4853 72.6335 62.448C72.6335 68.4453 71.3509 73.1773 68.7855 76.644C66.2202 80.076 62.3029 81.792 57.0335 81.792C51.7295 81.792 47.7949 80.076 45.2295 76.644C42.6989 73.1773 41.4335 68.4453 41.4335 62.448ZM61.2455 62.448C61.2455 59.6747 60.9682 57.5947 60.4135 56.208C59.8589 54.7867 58.7322 54.076 57.0335 54.076C55.3002 54.076 54.1562 54.7867 53.6015 56.208C53.0469 57.5947 52.7695 59.6747 52.7695 62.448C52.7695 65.256 53.0469 67.3707 53.6015 68.792C54.1562 70.1787 55.3002 70.872 57.0335 70.872C58.7322 70.872 59.8589 70.1787 60.4135 68.792C60.9682 67.3707 61.2455 65.256 61.2455 62.448ZM75.8632 62.448C75.8632 56.4507 77.1286 51.736 79.6592 48.304C82.2246 44.872 86.1592 43.156 91.4632 43.156C96.7326 43.156 100.65 44.8893 103.215 48.356C105.781 51.788 107.063 56.4853 107.063 62.448C107.063 68.4453 105.781 73.1773 103.215 76.644C100.65 80.076 96.7326 81.792 91.4632 81.792C86.1592 81.792 82.2246 80.076 79.6592 76.644C77.1286 73.1773 75.8632 68.4453 75.8632 62.448ZM95.6752 62.448C95.6752 59.6747 95.3979 57.5947 94.8432 56.208C94.2886 54.7867 93.1619 54.076 91.4632 54.076C89.7299 54.076 88.5859 54.7867 88.0312 56.208C87.4766 57.5947 87.1992 59.6747 87.1992 62.448C87.1992 65.256 87.4766 67.3707 88.0312 68.792C88.5859 70.1787 89.7299 70.872 91.4632 70.872C93.1619 70.872 94.2886 70.1787 94.8432 68.792C95.3979 67.3707 95.6752 65.256 95.6752 62.448Z" fill="black"/>
</svg>
