<svg width="128" height="128" viewBox="0 0 128 128" fill="none" xmlns="http://www.w3.org/2000/svg">
<rect width="128" height="128" fill="black"/>
<g clip-path="url(#clip0_538_47)">
<path d="M55.6395 97.954L50.6397 94.1365V86.111C50.6397 81.697 50.9386 78.0855 51.3031 78.0855C51.6677 78.0855 54.3325 79.8225 57.2246 81.9455L62.4829 85.8054V93.7885C62.4829 98.1792 62.068 101.772 61.561 101.772C61.054 101.772 58.3894 100.054 55.6395 97.954ZM65.3056 98.3896C64.9373 96.5488 64.6363 92.9642 64.6363 90.424C64.6363 86.1409 65.0182 85.525 69.8944 81.9455C72.7864 79.8225 75.4511 78.0855 75.8158 78.0855C76.1808 78.0855 76.4792 81.6785 76.4792 86.0699C76.4792 94.0202 76.4629 94.0675 72.4418 97.1939C70.2213 98.9207 67.8578 100.649 67.1897 101.035C66.4409 101.468 65.7183 100.453 65.3056 98.3896ZM43.4024 88.5409C41.5301 86.5626 39.8193 83.3308 39.4035 80.9862L38.6768 76.8888L42.7741 77.63C45.0277 78.0377 47.0301 78.5059 47.224 78.6705C47.4177 78.8352 47.7416 81.6738 47.9433 84.9786C48.1451 88.2834 47.942 91.2147 47.4922 91.4927C47.0425 91.7707 45.2021 90.4423 43.4024 88.5409ZM79.1558 85.5494C79.3426 81.9566 79.6646 78.8717 79.8714 78.6941C80.0781 78.5165 82.1243 78.0314 84.4184 77.6162L88.5897 76.8612L87.8356 80.9724C87.3982 83.3575 85.6712 86.5528 83.7225 88.5828C81.875 90.5072 80.0154 92.0818 79.59 92.0818C79.1646 92.0818 78.9691 89.1423 79.1558 85.5494ZM59.2937 79.1184C56.103 76.3912 54.6762 75.9323 49.3877 75.9323C45.9896 75.9323 40.8112 75.4179 37.8801 74.7893C34.9489 74.1607 31.7819 72.7966 30.842 71.7581C29.2623 70.0125 29.4027 69.6082 32.7019 66.4105L36.2712 62.9511L41.033 65.1115C43.6521 66.2997 47.3349 67.2825 49.2171 67.2955C51.0993 67.3085 53.4007 66.5578 54.3312 65.6273C55.2617 64.6968 56.023 63.0952 56.023 62.0682C56.023 61.0413 54.887 58.6611 53.4984 56.7791C52.1099 54.897 49.7104 52.3633 48.1663 51.1488C46.6222 49.9342 43.1126 47.9468 40.3672 46.7324C37.1503 45.3094 34.3806 44.7741 32.577 45.2268C31.0378 45.6131 29.1627 46.7449 28.41 47.7419C27.6573 48.7389 27.3202 50.5236 27.6609 51.7079C28.0015 52.8922 29.4609 55.437 30.9038 57.363L33.5275 60.8648L30.5096 63.5196C28.8499 64.9798 27.0974 66.1898 26.6151 66.2085C26.1327 66.2272 24.4371 64.7085 22.8469 62.8336C21.2567 60.9588 19.3116 58.5206 18.5244 57.4156C17.2548 55.6334 18.0106 53.9202 25.213 42.2524C29.679 35.0178 33.7144 28.5299 34.1807 27.8349C34.8034 26.907 40.2511 26.7336 54.6935 27.1823L74.3584 27.7933L78.6561 35.9823C81.0198 40.4864 83.1991 44.9372 83.4992 45.8732C83.8496 46.9652 82.6749 48.5497 80.2206 50.296C78.1171 51.7927 75.2035 54.6335 73.746 56.6091C72.2884 58.5847 71.0959 61.3011 71.0959 62.6456C71.0959 64.043 72.0848 65.6193 73.4045 66.3256C74.6741 67.0051 77.5519 67.3144 79.7996 67.0129C82.0472 66.7114 85.4534 65.683 87.3687 64.7275C90.7049 63.0632 90.9673 63.0924 93.6148 65.4238C95.1348 66.7623 96.7213 68.3309 97.1406 68.9095C97.5599 69.4882 97.153 70.7907 96.2358 71.804C95.3187 72.8173 92.1703 74.1607 89.2391 74.7893C86.308 75.4179 81.1293 75.9323 77.7312 75.9323C72.4427 75.9323 71.0162 76.3912 67.8255 79.1184C65.7753 80.8708 63.8557 82.3046 63.5596 82.3046C63.2634 82.3046 61.3439 80.8708 59.2937 79.1184ZM96.6093 63.5196L93.5917 60.8648L96.1809 57.363C97.605 55.437 99.0791 52.9864 99.4568 51.9173C99.9098 50.635 99.2315 49.0611 97.4629 47.2928C95.2641 45.0939 94.1237 44.7357 91.1183 45.2995C87.9981 45.8848 87.3454 45.6439 86.721 43.6765C86.3177 42.4058 84.3205 38.4164 82.2827 34.8112C80.2449 31.2059 78.7938 28.0399 79.0582 27.7755C79.3227 27.5111 82.3631 27.0548 85.8147 26.7616L92.0903 26.2284L101.056 40.8953L110.021 55.5623L105.949 60.9024C103.709 63.8395 101.37 66.2272 100.752 66.2085C100.133 66.1898 98.269 64.9798 96.6093 63.5196Z" fill="#E2017B"/>
</g>
<defs>
<clipPath id="clip0_538_47">
<rect width="92" height="75.5432" fill="white" transform="translate(18.0209 26.2284)"/>
</clipPath>
</defs>
</svg>
