<svg width="128" height="128" viewBox="0 0 128 128" fill="none" xmlns="http://www.w3.org/2000/svg">
<rect width="128" height="128" fill="#FEF7DD"/>
<path d="M64.3222 92.268C60.943 92.268 57.999 91.628 55.4902 90.348C53.0326 89.068 51.1126 87.2248 49.7302 84.8184C48.399 82.3608 47.7334 79.468 47.7334 76.14V50.796C47.7334 47.4168 48.399 44.524 49.7302 42.1176C51.1126 39.7112 53.0326 37.868 55.4902 36.588C57.999 35.308 60.943 34.668 64.3222 34.668C67.7014 34.668 70.6198 35.3336 73.0774 36.6648C75.535 37.9448 77.4294 39.788 78.7606 42.1944C80.0918 44.6008 80.7574 47.468 80.7574 50.796H73.8454C73.8454 47.6216 73.0006 45.1896 71.311 43.5C69.6726 41.7592 67.343 40.8888 64.3222 40.8888C61.3014 40.8888 58.9206 41.7336 57.1798 43.4232C55.4902 45.1128 54.6454 47.5448 54.6454 50.7192V76.14C54.6454 79.3144 55.4902 81.772 57.1798 83.5128C58.9206 85.2024 61.3014 86.0472 64.3222 86.0472C67.343 86.0472 69.6726 85.2024 71.311 83.5128C73.0006 81.772 73.8454 79.3144 73.8454 76.14H80.7574C80.7574 79.4168 80.0918 82.284 78.7606 84.7416C77.4294 87.148 75.535 89.0168 73.0774 90.348C70.6198 91.628 67.7014 92.268 64.3222 92.268Z" fill="black"/>
</svg>
